<?xml version="1.0" encoding="UTF-8"?>
<svg xmlns="http://www.w3.org/2000/svg" xmlns:xlink="http://www.w3.org/1999/xlink" width="120.98pt" height="141.38pt" viewBox="0 0 120.98 141.38" version="1.1">
<defs>
<clipPath id="clip1">
  <path d="M 0 0 L 120.980469 0 L 120.980469 141.378906 L 0 141.378906 Z M 0 0 "/>
</clipPath>
</defs>
<g id="surface1">
<g clip-path="url(#clip1)" clip-rule="nonzero">
<path style=" stroke:none;fill-rule:nonzero;fill:rgb(97.999573%,91.398621%,2.398682%);fill-opacity:1;" d="M 117.078125 69.621094 C 114.925781 69.621094 113.179688 71.371094 113.179688 73.523438 L 113.179688 133.582031 L 77.703125 133.582031 L 77.703125 96.066406 C 77.703125 93.914063 75.953125 92.167969 73.800781 92.167969 L 47.175781 92.167969 C 45.023438 92.167969 43.273438 93.914063 43.273438 96.066406 L 43.273438 126.210938 C 43.273438 128.359375 45.023438 130.109375 47.175781 130.109375 C 49.324219 130.109375 51.074219 128.359375 51.074219 126.210938 L 51.074219 99.964844 L 69.902344 99.964844 L 69.902344 133.582031 L 7.800781 133.582031 L 7.800781 51.121094 L 60.488281 8.894531 L 114.636719 52.289063 C 115.449219 52.941406 116.472656 53.234375 117.503906 53.121094 C 118.539063 53.007813 119.46875 52.496094 120.117188 51.6875 C 121.464844 50.007813 121.191406 47.550781 119.515625 46.203125 L 62.925781 0.855469 C 61.515625 -0.277344 59.464844 -0.277344 58.050781 0.855469 L 1.460938 46.203125 C 0.53125 46.949219 0 48.058594 0 49.246094 L 0 137.480469 C 0 139.628906 1.75 141.378906 3.898438 141.378906 L 117.078125 141.378906 C 119.226563 141.378906 120.976563 139.628906 120.976563 137.480469 L 120.976563 73.523438 C 120.976563 71.371094 119.226563 69.621094 117.078125 69.621094 "/>
</g>
</g>
</svg>
